<svg width="240" height="87" viewBox="0 0 240 87" fill="none" xmlns="http://www.w3.org/2000/svg">
<path d="M73.7037 6.04768C71.9115 7.51517 70.6812 9.48132 69.1664 11.1981C67.5876 12.9862 66.1155 14.8669 64.6007 16.7048C64.4016 16.947 64.174 17.1821 64.0531 17.4599C63.4629 18.8205 62.4672 19.7965 61.3507 20.7582C60.4191 21.5632 60.163 22.9309 59.5657 24.0209C58.7763 25.4599 58.1078 26.9986 56.6001 27.8677C56.0312 28.1954 55.7751 28.7653 55.6187 29.2996C55.3271 30.2826 54.6088 30.8953 53.9545 31.5792C53.5847 31.971 53.6132 32.0422 54.1537 32.1847C54.6444 32.3129 55.32 32.0493 55.576 32.4981C55.7751 32.8472 55.576 33.4242 55.576 33.8944C55.576 34.8062 56.0738 35.3476 56.977 35.3975C57.4606 35.426 57.7735 35.6254 57.9513 36.0742C58.0651 36.3663 58.2713 36.6228 58.3638 36.9148C58.9043 38.6602 60.291 39.3369 61.8912 39.7145C62.5383 39.8641 62.8939 40.1633 63.0504 40.8543C63.2211 41.5809 63.662 42.2434 63.7615 43.0128C63.7971 43.2692 63.9678 43.4331 64.1811 43.5114C64.8496 43.7536 64.9065 44.0101 64.5296 44.6797C63.0575 47.2941 62.0547 50.1009 61.5569 53.0786C61.5214 53.3137 61.692 53.5132 61.5427 53.7554C61.0733 53.791 60.8813 53.3636 60.6466 53.1071C59.0892 51.3903 57.1477 50.1508 55.3769 48.6904C55.0853 48.4482 54.8364 48.2345 54.8364 47.7999C54.8364 47.5363 54.6728 47.2941 54.4524 47.0733C53.3003 45.905 52.4398 44.5016 51.5081 43.1624C51.1383 42.6352 50.8965 42.0439 50.2991 41.6878C49.6875 41.3173 49.5738 40.5551 49.1897 39.9994C48.8484 39.5079 48.6137 39.5079 48.1799 39.8427C47.9238 40.0422 47.7034 40.2488 47.5683 40.5337C47.1558 41.4099 46.6722 42.2434 46.1886 43.0769C45.9468 43.4972 45.4917 43.946 46.0037 44.5301C46.1602 44.7082 45.9326 44.9362 45.7548 45.1C44.9156 45.8623 44.0764 46.6174 43.2586 47.3939C43.0595 47.5862 42.9315 47.8569 42.8106 48.1062C42.0283 49.7162 41.2673 51.3262 39.8592 52.5301C39.1765 53.1071 38.8636 53.9406 38.636 54.8168C38.2875 56.1347 37.8822 57.4526 36.4243 58.0225C35.9976 58.1863 35.8482 58.571 35.7629 58.9557C35.2722 61.2353 33.8214 62.9664 32.3991 64.6832C31.7661 65.4454 31.2114 66.2362 30.678 67.0696C29.8175 68.4303 28.8006 69.6983 27.7907 70.9592C26.4964 72.5834 25.6003 74.4427 24.5193 76.188C23.9575 77.0999 23.545 78.0972 22.8552 78.9307C22.7699 79.0304 22.6916 79.18 22.6916 79.3082C22.649 80.7401 21.7387 81.659 20.7501 82.5068C20.0319 83.1265 19.6834 83.9671 19.2851 84.7579C18.8727 85.5842 18.3464 86.033 17.4717 86.4533C16.3125 87.009 16.0067 86.5388 15.6084 85.6982C15.4804 85.4275 15.267 85.1853 15.0608 84.9502C14.6839 84.5228 14.7052 84.1239 15.011 83.6395C15.772 82.4498 16.3978 81.1889 17.0307 79.9209C17.2583 79.4578 17.4646 78.9734 18.1188 78.8309C18.6095 78.7241 18.6522 78.1186 18.7873 77.7125C19.086 76.7935 19.5412 76.0669 20.3448 75.4828C21.2835 74.806 21.4471 73.6021 21.9591 72.6404C22.5352 71.5576 23.0401 70.4677 23.8011 69.449C24.9958 67.8461 26.1835 66.115 26.3044 63.9922C26.3684 62.9165 26.8875 62.2825 27.8263 61.9334C28.2814 61.7624 28.5019 61.4775 28.5943 61.0145C28.6441 60.7722 28.7579 60.5087 28.9215 60.3306C30.0949 59.0127 30.1802 57.189 31.1047 55.7571C31.4745 55.173 31.8728 54.6387 32.5697 54.3965C33.5583 54.0546 33.4516 53.1285 33.5938 52.3449C33.6365 52.0955 33.544 51.7607 33.7574 51.6254C34.6179 51.0555 34.945 50.0653 35.4855 49.2817C36.7585 47.4366 38.3871 45.7554 38.828 43.4331C38.892 43.0911 39.0343 42.8347 39.3329 42.6993C40.1223 42.3431 40.2006 41.6379 40.1579 40.9326C40.1366 40.6334 40.1935 40.3627 40.3855 40.2559C41.438 39.6931 41.6158 38.6032 42.0283 37.6557C42.1705 37.3351 42.2487 37.0075 42.6897 36.9861C42.9528 36.9718 43.0595 36.751 43.1661 36.5444C43.5715 35.7252 44.0266 34.9344 44.6951 34.3076C45.0009 34.0226 44.9938 33.8231 44.6738 33.5738C44.3325 33.3031 44.112 32.9398 44.0409 32.4981C44.0267 32.3984 43.9626 32.2203 43.8986 32.2132C42.5332 32.028 42.6328 30.6816 42.1421 29.8695C41.1678 28.2809 40.0797 26.7493 39.397 24.9897C39.212 24.5124 38.6787 24.3628 38.3089 24.0636C37.9035 23.7217 37.7755 23.4866 38.0955 23.0236C38.38 22.6104 38.3942 22.126 38.4227 21.6059C38.4795 20.7155 39.0414 19.9176 39.6743 19.2765C40.6984 18.2435 42.0709 17.8232 43.4008 17.3388C43.6782 17.2391 43.8204 17.3815 43.8346 17.5739C43.9129 18.5926 44.752 18.849 45.4561 19.2408C45.6552 19.3477 45.8544 19.3691 45.7761 19.711C45.5699 20.5872 46.4588 21.898 47.1131 22.4252C47.5896 22.8098 48.7488 22.9523 48.251 24.1064C48.1301 24.3842 48.3577 24.6406 48.5995 24.8259C48.891 25.0467 49.1826 25.2818 49.4671 25.5097C50.1854 26.0725 50.6618 25.9799 51.0103 25.1179C51.1312 24.8045 51.3019 24.605 51.5366 24.3984C52.198 23.8143 52.7242 23.1447 53.0585 22.2827C53.4212 21.3423 53.8905 20.4091 54.8364 19.8464C54.9929 19.7538 55.1422 19.5614 55.1991 19.3904C55.4693 18.5926 55.9814 17.9586 56.529 17.3531C56.8561 16.9897 57.1904 16.6905 57.1264 16.1135C57.0837 15.6719 57.5602 15.5436 57.8517 15.3584C59.0323 14.5962 60.0635 13.7271 60.3906 12.2667C60.5186 11.6968 60.8742 11.3335 61.3791 11.0628C61.9125 10.7707 62.1828 10.2293 62.5668 9.79477C63.2139 9.06815 63.6406 8.19905 64.2167 7.4938C65.127 6.3825 66.3217 5.50628 67.2747 4.35935C68.1352 3.32641 69.4793 2.6924 70.6101 1.88742C71.3497 1.36026 72.1106 0.861597 72.8147 0.284574C73.2343 -0.0573655 73.5757 -0.0858605 74.045 0.170594C74.7277 0.548152 75.3749 1.06106 76.2568 0.904339C76.591 0.847349 76.5412 1.15367 76.5768 1.37451C76.7901 2.76364 76.0647 3.74671 75.1758 4.66567C74.6424 5.0931 74.2157 5.6345 73.6894 6.06193L73.7037 6.04768Z" fill="#FF3F44"/>
<path d="M93.7229 44.9576C91.2196 44.8863 88.3749 45.0715 85.5374 44.8293C84.6555 44.7581 83.7879 44.6085 82.9416 44.3663C79.5564 43.4046 77.7999 40.9683 77.5865 36.9291C77.5581 36.3307 77.3234 35.6967 77.9777 35.2194C78.4755 34.8561 81.9317 34.8419 82.4082 35.2408C82.7354 35.5115 82.9132 35.8178 82.8847 36.2666C82.8634 36.6869 82.8918 37.1215 82.9558 37.5418C83.1265 38.6673 83.7026 39.4082 84.9044 39.5791C85.6938 39.6931 86.469 39.8498 87.2726 39.8498C92.3361 39.8498 97.3925 39.8783 102.456 39.8285C104.974 39.8 105.663 38.9309 105.407 36.4233C105.279 35.1909 104.796 34.6424 103.58 34.4144C102.797 34.2648 102.008 34.2007 101.204 34.2007C96.1764 34.158 91.1414 34.3432 86.1134 34.0654C84.6626 33.987 83.2332 33.8018 81.818 33.4385C79.5636 32.8615 78.3048 31.3655 77.8354 29.1357C77.6221 28.1242 77.5723 27.1055 77.6363 26.0797C77.8141 23.0093 79.3004 21.0503 82.2162 20.0815C84.4777 19.3335 86.8388 19.1198 89.1999 19.1126C93.5167 19.0984 97.8406 18.8704 102.143 19.4047C103.836 19.6113 105.514 19.9034 107.064 20.6941C109.511 21.9408 110.755 24.4341 110.201 27.1055C110.08 27.6825 109.674 28.0814 108.985 28.0672C107.989 28.0458 106.993 28.0672 105.998 28.0601C105.166 28.0529 104.71 27.5828 104.703 26.7493C104.689 25.4456 104.398 25.0396 103.117 24.719C101.567 24.3272 99.9669 24.2489 98.3739 24.2489C94.3416 24.2489 90.3022 24.0636 86.2699 24.4269C85.9285 24.4554 85.5943 24.5053 85.26 24.5694C83.8234 24.8401 83.3256 25.4171 83.3185 26.8063C83.3185 28.2168 83.8021 28.8152 85.196 29.1072C86.789 29.4349 88.4105 29.4706 90.0319 29.4777C93.7869 29.4848 97.5348 29.4563 101.29 29.4919C102.961 29.5062 104.654 29.5418 106.289 29.9692C109.02 30.6816 110.805 32.3129 111.132 35.2337C111.303 36.7581 111.424 38.2969 111.075 39.8213C110.656 41.6379 109.596 42.9131 107.896 43.6753C106.126 44.4731 104.234 44.6869 102.335 44.8293C99.5829 45.0359 96.8236 44.9433 93.73 44.9647L93.7229 44.9576Z" fill="#FFEFEF"/>
<path d="M72.9498 32.0992C72.9498 35.8035 72.9498 39.5007 72.9498 43.2051C72.9498 44.2238 72.5302 44.6512 71.5346 44.6583C70.539 44.6583 69.5433 44.6583 68.5477 44.6583C67.6445 44.6583 67.1538 44.1668 67.1538 43.255C67.1538 35.7964 67.1538 28.3378 67.1538 20.8722C67.1538 19.9746 67.6587 19.4617 68.5335 19.4617C69.5576 19.4617 70.5816 19.4617 71.6057 19.4617C72.4876 19.4617 72.9498 19.9318 72.9498 20.8152C72.9498 24.5765 72.9498 28.3307 72.9498 32.0921V32.0992Z" fill="#FFEFEF"/>
<path d="M33.5014 28.3736C33.4729 25.0895 32.2568 22.4324 29.1206 20.9791C26.9728 19.9818 24.6829 19.6327 22.3289 19.6755C22.1867 19.6042 22.0445 19.59 21.9022 19.6755C20.6435 19.4689 19.3705 19.5829 18.1046 19.59C16.2982 19.5971 14.4919 19.4618 12.6855 19.6755C12.4864 19.5757 12.2801 19.6042 12.081 19.6897C9.96172 19.6399 7.89222 19.9177 5.90807 20.6657C3.07051 21.7342 1.64106 24.0067 1.81174 27.0343C1.84019 27.5899 2.06776 27.7823 2.60114 27.7752C3.7959 27.7538 4.98355 27.7538 6.17831 27.7752C6.76147 27.7823 6.96771 27.5472 6.98904 26.9631C7.04593 24.9827 7.65043 24.3558 9.60614 24.1207C10.808 23.9782 12.0099 23.9996 13.2118 23.9568C15.7008 23.8642 18.1828 23.8785 20.6648 23.9426C21.2835 24.1634 21.9164 24.2062 22.5707 24.2062C23.6872 24.2062 24.7824 24.3629 25.8492 24.6977C26.6813 24.9613 27.4707 25.3531 27.8831 26.151C28.5943 27.5258 28.6299 29.0218 28.5232 30.5107C28.2743 30.5605 28.1534 30.4893 28.0325 30.4109C26.4395 29.378 24.6402 28.9862 22.7912 28.7796C22.5636 28.7511 22.336 28.7297 22.1511 28.915C19.022 28.9078 15.9 28.8936 12.7708 28.8936C10.4666 28.8936 8.16958 28.9791 5.90807 29.4635C2.24556 30.2471 0.403632 32.0209 0.069383 35.4831C-0.364429 39.9354 1.21436 42.8134 5.41736 43.9104C5.80139 44.0102 6.19253 44.1028 6.58368 44.1526C12.2446 44.9576 17.9268 44.7439 23.5948 44.4162C25.1594 44.3236 26.667 43.8606 27.9258 42.8276C28.1676 42.6282 28.4165 42.4216 28.7365 42.158C28.7365 42.6638 28.765 43.0342 28.7365 43.3975C28.6725 44.0956 28.957 44.3806 29.6682 44.3521C30.6354 44.3094 31.6025 44.3094 32.5697 44.3521C33.2667 44.3806 33.5298 44.1313 33.5298 43.4189C33.5156 38.4109 33.5511 33.3958 33.5156 28.3878L33.5014 28.3736ZM28.4805 37.3637C28.4734 38.7956 28.0111 39.4438 26.6457 39.8642C25.4438 40.2346 24.1922 40.3414 22.9405 40.3628C20.9208 40.4056 18.9011 40.3771 16.8885 40.3771C13.9371 40.3414 10.9716 40.5908 8.04157 40.0565C6.27076 39.7359 5.53826 38.9452 5.40314 37.1571C5.37469 36.7297 5.36758 36.3023 5.40314 35.882C5.50981 34.4786 6.16409 33.7092 7.5153 33.3602C8.81674 33.0254 10.1537 32.9185 11.4836 32.9043C15.7151 32.8686 19.9536 32.719 24.1851 33.0254C25.1523 33.0966 26.1052 33.2248 27.0084 33.5881C27.9685 33.9799 28.5161 34.6638 28.4805 35.7466C28.4663 36.288 28.4805 36.8294 28.4805 37.3708V37.3637Z" fill="#FFEFEF"/>
<path d="M172.321 30.4393C172.151 30.2897 171.959 30.1686 171.817 29.9976C171.368 29.4705 171.034 28.694 171.376 28.2167C171.724 27.7251 172.585 28.1027 173.218 28.0528C173.395 28.0386 173.431 28.2309 173.445 28.3592C173.516 29.2354 174.156 29.4705 174.86 29.5631C176.588 29.7981 178.317 29.7839 180.045 29.5631C180.841 29.4633 181.239 29.0003 181.239 28.1739C181.239 27.3689 180.934 26.8988 180.087 26.7848C178.139 26.5212 176.169 26.6138 174.213 26.4856C173.872 26.4642 173.53 26.45 173.196 26.3859C171.994 26.1437 171.44 25.474 171.397 24.263C171.347 22.9166 171.824 22.1188 173.061 21.8623C175.813 21.2924 178.594 21.3066 181.36 21.7839C182.221 21.9335 182.868 22.4322 183.053 23.3654C183.117 23.686 183.081 23.9638 182.655 23.8926C181.986 23.7786 181.111 24.3057 180.713 23.2514C180.642 23.0662 180.237 22.9451 179.966 22.9095C178.189 22.653 176.404 22.6459 174.619 22.8667C173.822 22.9665 173.509 23.4082 173.495 24.1918C173.474 25.0324 174.042 25.2033 174.654 25.2461C176.439 25.3529 178.231 25.3957 180.023 25.4883C180.564 25.5168 181.104 25.5738 181.631 25.6806C182.648 25.8943 183.266 26.5212 183.409 27.3903C183.636 28.8222 183.302 29.6913 182.335 30.2897C181.552 30.7741 180.685 30.881 179.803 30.9166C177.669 30.9949 175.543 31.0021 173.417 30.7456C173.061 30.6174 172.627 30.7456 172.314 30.4393H172.321Z" fill="#FFEFEF"/>
<path d="M215.212 22.0761C217.85 21.2212 220.538 21.3423 223.219 21.7484C224.535 21.9478 225.538 22.646 225.858 24.0636C225.957 24.4981 225.922 24.7973 225.353 24.7403C225.069 24.7118 224.784 24.7047 224.5 24.7403C223.959 24.8116 223.696 24.6477 223.589 24.0636C223.44 23.28 222.779 23.0164 222.074 22.9167C220.574 22.703 219.066 22.7101 217.566 22.9167C216.506 23.0591 216.094 23.5079 215.987 24.5907C215.873 25.7519 215.873 26.9202 216.001 28.0885C216.094 28.9718 216.591 29.4705 217.473 29.5916C219.002 29.7982 220.531 29.8196 222.06 29.5916C223.148 29.4278 223.561 29.036 223.682 27.9531C223.732 27.5186 223.881 27.4189 224.258 27.4616C224.4 27.4759 224.542 27.4616 224.684 27.4616C226.036 27.4616 226.213 27.7537 225.652 29.0288C225.296 29.8481 224.635 30.361 223.81 30.5533C221.143 31.166 218.455 31.1873 215.795 30.5391C214.579 30.2399 213.882 29.3565 213.782 28.0743C213.668 26.6566 213.69 25.2319 213.825 23.8143C213.832 23.3868 214.06 23.052 214.316 22.7386C214.437 22.6388 214.557 22.5391 214.678 22.4465C214.771 22.1972 214.991 22.1331 215.219 22.0832L215.212 22.0761Z" fill="#FFEFEF"/>
<path d="M239.662 35.7537C239.342 35.7537 239.029 35.7537 238.709 35.7465C238.687 35.7465 238.659 35.7537 238.638 35.7608C238.474 35.6753 238.268 35.6753 238.076 35.6539C233.282 35.718 228.482 35.7608 223.682 35.775C189.204 35.8605 154.727 35.8178 120.25 35.8178C119.937 35.8178 119.624 35.8676 119.325 35.7465L119.311 35.7608C118.137 35.5969 118.088 35.6326 118.052 36.7581C118.066 38.9451 118.016 41.125 118.08 43.312C118.109 43.4188 118.159 43.5114 118.237 43.5898C118.635 43.8391 119.069 43.6753 119.481 43.6539C124.047 43.3618 128.606 43.0555 133.171 42.7634C137.538 42.4856 141.905 42.2291 146.271 41.9513C151.854 41.5951 157.444 41.2318 163.026 40.8756C168.353 40.5408 173.687 40.2202 179.013 39.8854C184.568 39.5364 190.129 39.1731 195.683 38.8311C200.896 38.5034 206.116 38.1971 211.336 37.8694C218.113 37.442 224.891 37.0146 231.661 36.58C234.072 36.4233 236.476 36.2452 238.879 36.0742C239.164 36.0742 239.441 36.0742 239.726 36.0742C239.811 35.946 239.868 35.8249 239.662 35.7608V35.7537Z" fill="#FFEFEF"/>
<path d="M198.073 25.6379C198.087 22.8953 197.376 22.0547 194.673 21.5703C194.559 21.5489 194.453 21.5346 194.339 21.5133C193.258 21.4135 192.177 21.4135 191.096 21.5133C190.982 21.5204 190.868 21.5275 190.755 21.5346C190.484 21.4064 190.278 21.5346 190.072 21.6914C189.61 21.9336 189.005 21.898 188.657 22.3824C188.394 22.589 188.315 22.4322 188.28 22.19C188.258 22.0262 188.322 21.8481 188.187 21.7056C187.846 21.7056 187.497 21.7484 187.163 21.6985C186.367 21.5774 186.182 21.8908 186.189 22.6673C186.232 26.0511 186.21 29.442 186.21 32.8329C186.21 34.2933 186.21 34.2648 187.647 34.279C188.223 34.279 188.372 34.1009 188.351 33.5524C188.308 32.3129 188.337 31.0805 188.337 29.7269C188.863 30.1401 189.282 30.4749 189.809 30.6103C191.949 31.1588 194.083 31.1374 196.188 30.4749C197.155 30.1686 197.717 29.4562 197.952 28.4589C198.165 27.5257 198.058 26.5854 198.065 25.6522L198.073 25.6379ZM195.747 28.2595C195.598 28.9576 195.207 29.385 194.538 29.5204C193.101 29.8124 191.658 29.8267 190.243 29.4349C188.913 29.0644 188.379 28.3378 188.351 26.9701C188.344 26.4856 188.344 26.0012 188.351 25.5239C188.379 24.0849 188.977 23.2871 190.349 22.9523C191.601 22.646 192.881 22.6246 194.147 22.8454C195.363 23.0591 195.676 23.3868 195.832 24.6121C195.896 25.1464 195.847 25.6878 195.847 26.2292C195.868 26.9059 195.903 27.5827 195.754 28.2666L195.747 28.2595Z" fill="#FFEFEF"/>
<path d="M129.985 23.9782C129.971 22.6959 129.431 21.9621 128.186 21.7627C125.619 21.3495 123.037 21.321 120.463 21.7627C119.787 21.8767 119.154 22.1758 118.813 22.8526C118.408 23.6647 118.557 23.9497 119.446 23.8855C119.887 23.8571 120.506 24.2204 120.747 23.6576C121.067 22.9096 121.644 22.7529 122.312 22.7315C123.251 22.6959 124.189 22.6531 125.121 22.6959C127.781 22.8099 128.03 23.0948 127.866 25.752C127.866 25.7662 127.831 25.7876 127.816 25.7947C125.221 24.8757 122.575 24.9969 119.93 25.4456C118.649 25.6594 118.152 26.4786 118.109 27.9461C118.066 29.3352 118.614 30.3254 119.802 30.5676C122.532 31.1233 125.278 31.3441 127.952 30.1616C128.023 31.2088 128.833 30.6958 129.36 30.7956C129.801 30.8739 130.014 30.7528 130.007 30.2186C129.971 28.1384 130.007 26.0583 129.978 23.9853L129.985 23.9782ZM126.657 29.3922C125.74 29.6273 124.801 29.6202 123.585 29.613C123.044 29.5917 122.227 29.6344 121.416 29.4207C120.605 29.207 120.356 28.63 120.356 27.8891C120.356 27.1411 120.726 26.6424 121.48 26.5071C123.201 26.2079 124.936 26.2435 126.643 26.5712C127.667 26.7635 127.859 27.1126 127.902 28.0672C127.952 28.9933 127.34 29.2212 126.657 29.3922Z" fill="#FFEFEF"/>
<path d="M211.57 24.0565C211.549 22.6175 211.009 21.9622 209.6 21.7342C207.318 21.3566 205.013 21.4208 202.723 21.6273C202.219 21.6701 201.721 21.8054 201.258 22.0405C200.69 22.3326 200.32 22.76 200.241 23.4154C200.213 23.6505 200.192 23.9497 200.519 23.8927C201.23 23.7645 202.19 24.3985 202.588 23.2231C202.681 22.9452 203.029 22.8526 203.307 22.817C205.028 22.5962 206.756 22.5748 208.477 22.8811C208.982 22.9737 209.273 23.2943 209.38 23.7787C209.522 24.4626 209.515 25.1465 209.43 25.8019C206.791 24.8687 204.167 24.9969 201.557 25.4314C200.241 25.6523 199.722 26.4929 199.701 27.996C199.68 29.4136 200.27 30.2613 201.522 30.6104C203.164 31.0592 204.843 30.9737 206.514 30.9238C207.567 30.8953 208.598 30.7244 209.529 30.0405C209.615 31.2586 210.497 30.6745 211.065 30.7956C211.464 30.8811 211.599 30.703 211.599 30.2898C211.577 28.2168 211.599 26.1367 211.57 24.0637V24.0565ZM208.199 29.4065C207.31 29.6273 206.4 29.6131 205.348 29.6202C204.672 29.5846 203.847 29.6344 203.036 29.4278C202.183 29.2141 201.927 28.6157 201.941 27.8321C201.955 27.0841 202.339 26.614 203.107 26.4929C204.807 26.215 206.507 26.2507 208.199 26.557C209.245 26.7493 209.437 27.077 209.494 28.0245C209.558 28.9933 208.932 29.2213 208.207 29.4065H208.199Z" fill="#FFEFEF"/>
<path d="M230.615 26.4714C232.038 26.507 233.46 26.4856 234.875 26.4856C236.355 26.4856 237.834 26.4856 239.306 26.4856C239.533 26.4856 239.797 26.5853 239.889 26.1793C240.358 24.0778 239.306 22.1544 237.322 21.7697C234.961 21.3138 232.571 21.3209 230.21 21.7697C228.603 22.076 227.842 22.938 227.707 24.5622C227.614 25.6094 227.614 26.6708 227.707 27.718C227.87 29.5631 228.717 30.425 230.594 30.7527C232.457 31.0804 234.335 31.0021 236.205 30.8738C236.852 30.8311 237.5 30.6815 238.097 30.4179C238.95 30.0404 239.548 29.4277 239.754 28.4945C239.79 28.3449 239.918 28.0671 239.726 28.0457C239.135 27.9745 238.545 27.9816 237.948 27.9745C237.528 27.9673 237.599 28.3449 237.492 28.5871C237.208 29.2282 236.66 29.4918 236.013 29.5916C234.655 29.7981 233.297 29.8195 231.938 29.6414C230.317 29.4206 229.89 28.8649 229.84 27.2194C229.826 26.5782 230.061 26.4714 230.623 26.4856L230.615 26.4714ZM229.876 24.5551C230.025 23.5435 230.473 23.052 231.512 22.9095C233.005 22.7029 234.513 22.7029 236.006 22.9095C236.568 22.9879 237.108 23.1517 237.421 23.7216C237.997 24.7688 237.748 25.2461 236.589 25.2461C235.651 25.2461 234.719 25.2461 233.78 25.2461C232.678 25.2461 231.568 25.2176 230.466 25.2603C229.89 25.2817 229.798 25.0537 229.869 24.5551H229.876Z" fill="#FFEFEF"/>
<path d="M144.166 24.1064C143.981 22.8455 143.277 22.0618 141.819 21.7769C139.43 21.3138 137.012 21.3067 134.629 21.7698C133.022 22.0761 132.311 22.9309 132.155 24.5836C132.048 25.7092 132.055 26.849 132.183 27.9888C132.347 29.3993 133.115 30.2684 134.48 30.6032C136.578 31.1232 138.704 31.0235 140.824 30.824C141.997 30.7172 143.128 30.418 143.839 29.3281C144.095 28.9434 144.38 28.4661 144.195 28.0743C144.067 27.8036 143.512 28.003 143.149 27.9674C142.523 27.9033 142.033 27.9247 141.819 28.7225C141.663 29.2996 141.023 29.4777 140.447 29.5774C139.409 29.7626 138.356 29.7341 137.303 29.7127C134.765 29.6486 134.21 29.0574 134.317 26.5142C134.658 26.4999 134.992 26.4786 135.334 26.4786C138.107 26.4786 140.881 26.4786 143.654 26.4714C143.917 26.4714 144.351 26.6495 144.323 26.1081C144.287 25.4385 144.465 24.7475 144.173 24.0992L144.166 24.1064ZM134.345 24.5124C134.509 23.5222 134.914 23.0592 135.931 22.9167C137.453 22.703 138.982 22.6959 140.504 22.9167C141.094 23.0022 141.656 23.2088 141.933 23.8285C142.403 24.8615 142.182 25.239 141.08 25.2462C140.148 25.2462 139.209 25.2462 138.278 25.2462C137.175 25.2462 136.066 25.2105 134.964 25.2604C134.338 25.2889 134.26 25.0324 134.345 24.5053V24.5124Z" fill="#FFEFEF"/>
<path d="M169.455 24.3272C169.313 23.0663 168.609 22.2613 167.407 21.8837C166.113 21.4706 164.783 21.4848 163.446 21.4848C162.28 21.4777 161.12 21.4777 159.975 21.7341C158.404 22.0832 157.579 22.8597 157.387 24.3842C157.23 25.6237 157.244 26.8846 157.387 28.1241C157.543 29.442 158.311 30.2826 159.62 30.6032C161.775 31.1303 163.951 31.0021 166.134 30.8311C166.667 30.7884 167.187 30.6531 167.699 30.4607C168.694 30.0832 169.27 29.3637 169.427 28.3307C169.626 27.0057 169.605 25.6664 169.455 24.3414V24.3272ZM167.229 28.1526C167.108 29.0146 166.589 29.442 165.771 29.5702C164.982 29.6985 164.193 29.7412 163.396 29.7198C162.6 29.7412 161.803 29.6985 161.021 29.5631C160.281 29.4349 159.79 29.0431 159.662 28.2524C159.456 26.9487 159.485 25.6522 159.641 24.3485C159.748 23.4866 160.274 23.0449 161.092 22.9238C162.649 22.6958 164.207 22.703 165.764 22.9238C166.611 23.0449 167.144 23.5151 167.251 24.4127C167.4 25.6593 167.407 26.906 167.236 28.1526H167.229Z" fill="#FFEFEF"/>
<path d="M155.31 22.005C153.696 21.086 150.183 21.3567 148.583 22.6461C148.767 21.7984 148.433 21.6132 147.807 21.7058C147.615 21.7343 147.409 21.7343 147.21 21.7058C146.698 21.6274 146.534 21.8055 146.541 22.3469C146.577 24.7049 146.556 27.0628 146.556 29.4279C146.556 30.8028 146.556 30.76 147.935 30.8099C148.604 30.8384 148.732 30.6176 148.718 29.9978C148.689 28.2952 148.696 26.5855 148.76 24.8829C148.803 23.7859 149.372 23.1946 150.41 22.8883C151.193 22.6603 151.989 22.696 152.778 22.7601C153.902 22.8456 154.272 23.2089 154.371 24.3487C154.407 24.7761 154.556 24.8687 154.94 24.8402C155.339 24.8117 155.737 24.8402 156.135 24.8402C156.327 24.8402 156.512 24.8758 156.555 24.5624C156.669 23.7218 156.064 22.4395 155.31 22.005Z" fill="#FFEFEF"/>
</svg>
